<?xml version="1.0" encoding="UTF-8"?>
<svg version="1.1" xmlns="http://www.w3.org/2000/svg" width="30" height="30">
<path d="M0 0 C0.78375 0.04125 1.5675 0.0825 2.375 0.125 C3.5 2.4375 3.5 2.4375 4.375 5.125 C3.385 6.61 3.385 6.61 2.375 8.125 C3.365 7.795 4.355 7.465 5.375 7.125 C6.9375 8.375 6.9375 8.375 8.375 10.125 C8.12353421 12.26245922 7.91574221 13.58425779 6.375 15.125 C7.179375 15.351875 7.98375 15.57875 8.8125 15.8125 C11.375 17.125 11.375 17.125 12.3125 19.625 C12.333125 20.45 12.35375 21.275 12.375 22.125 C10.375 24.125 10.375 24.125 8.06835938 24.36791992 C7.12798828 24.36381104 6.18761719 24.35970215 5.21875 24.35546875 C4.19652344 24.35353516 3.17429687 24.35160156 2.12109375 24.34960938 C1.04988281 24.33736328 -0.02132813 24.32511719 -1.125 24.3125 C-2.19621094 24.31185547 -3.26742188 24.31121094 -4.37109375 24.31054688 C-12.34439772 24.26530114 -12.34439772 24.26530114 -14.625 23.125 C-15.27333698 16.64994217 -13.55931599 13.69744929 -9.75 8.8125 C-9.28980469 8.19310547 -8.82960938 7.57371094 -8.35546875 6.93554688 C-3.27634158 0.15601627 -3.27634158 0.15601627 0 0 Z M-6.625 13.125 C-6.955 13.785 -7.285 14.445 -7.625 15.125 C-6.635 14.795 -5.645 14.465 -4.625 14.125 C-5.285 13.795 -5.945 13.465 -6.625 13.125 Z M-11.625 17.125 C-11.295 18.115 -10.965 19.105 -10.625 20.125 C-10.295 19.135 -9.965 18.145 -9.625 17.125 C-10.285 17.125 -10.945 17.125 -11.625 17.125 Z " fill="#FAE363" transform="translate(16.625,2.875)"/>
<path d="M0 0 C0.78375 0.04125 1.5675 0.0825 2.375 0.125 C3.035 1.775 3.695 3.425 4.375 5.125 C-8.99393204 17.125 -8.99393204 17.125 -11.625 17.125 C-10.87349977 20.40273504 -10.87349977 20.40273504 -7.625 22.125 C-9.275 21.795 -10.925 21.465 -12.625 21.125 C-12.625 21.785 -12.625 22.445 -12.625 23.125 C-13.285 23.125 -13.945 23.125 -14.625 23.125 C-15.27333698 16.64994217 -13.55931599 13.69744929 -9.75 8.8125 C-9.28980469 8.19310547 -8.82960938 7.57371094 -8.35546875 6.93554688 C-3.27634158 0.15601627 -3.27634158 0.15601627 0 0 Z " fill="#FBDC4D" transform="translate(16.625,2.875)"/>
<path d="M0 0 C0.80050781 0.37705078 0.80050781 0.37705078 1.6171875 0.76171875 C2.3046875 3.07421875 2.3046875 3.07421875 2.6171875 5.76171875 C0.30917812 8.94742183 -2.67330389 9.77261894 -6.3203125 10.94921875 C-7.36058594 11.29339844 -8.40085937 11.63757812 -9.47265625 11.9921875 C-12.3828125 12.76171875 -12.3828125 12.76171875 -16.3828125 12.76171875 C-14.85079801 8.64797612 -11.91747838 6.48807069 -8.5078125 3.94921875 C-7.97800781 3.52962891 -7.44820312 3.11003906 -6.90234375 2.67773438 C-2.9544339 -0.29544339 -2.9544339 -0.29544339 0 0 Z " fill="#50A5EC" transform="translate(22.3828125,10.23828125)"/>
<path d="M0 0 C0.33 0.66 0.66 1.32 1 2 C2.98 1.34 4.96 0.68 7 0 C5.50958227 3.79379058 3.30937488 5.68343758 0 8 C-0.66 8 -1.32 8 -2 8 C-1.24849977 11.27773504 -1.24849977 11.27773504 2 13 C0.35 12.67 -1.3 12.34 -3 12 C-3 12.66 -3 13.32 -3 14 C-3.66 14 -4.32 14 -5 14 C-5.46733615 9.42010577 -5.17261016 6.75145487 -2.5 3.0625 C-1.675 2.051875 -0.85 1.04125 0 0 Z " fill="#FBE873" transform="translate(7,12)"/>
<path d="M0 0 C-0.33 0.66 -0.66 1.32 -1 2 C1.97 2.33 4.94 2.66 8 3 C8 3.33 8 3.66 8 4 C0.74 4 -6.52 4 -14 4 C-14 3.01 -14 2.02 -14 1 C-11.525 1.99 -11.525 1.99 -9 3 C-9 2.34 -9 1.68 -9 1 C-5.92677456 0.08941469 -3.19902639 -0.08886184 0 0 Z " fill="#FBDA41" transform="translate(18,22)"/>
<path d="M0 0 C1.11375 0.1546875 1.11375 0.1546875 2.25 0.3125 C2.91 1.9625 3.57 3.6125 4.25 5.3125 C3.26 5.8075 3.26 5.8075 2.25 6.3125 C2.25 4.9925 2.25 3.6725 2.25 2.3125 C-1.50563429 4.52169664 -5.13776679 6.87634272 -8.75 9.3125 C-4.85638298 0.5518617 -4.85638298 0.5518617 0 0 Z " fill="#FAE87A" transform="translate(16.75,2.6875)"/>
<path d="M0 0 C0.33 0.66 0.66 1.32 1 2 C2.98 1.34 4.96 0.68 7 0 C6.1875 1.9375 6.1875 1.9375 5 4 C2 5 2 5 -1 4 C-0.67 2.68 -0.34 1.36 0 0 Z " fill="#FBE466" transform="translate(7,12)"/>
</svg>
